<svg width="24" height="24" viewBox="0 0 24 24" fill="none" xmlns="http://www.w3.org/2000/svg">
<path fill-rule="evenodd" clip-rule="evenodd" d="M5.75 2H2V5.75H5.75V2ZM2 0.75C1.66848 0.75 1.35054 0.881696 1.11612 1.11612C0.881696 1.35054 0.75 1.66848 0.75 2V5.75C0.75 6.08152 0.881696 6.39946 1.11612 6.63388C1.35054 6.8683 1.66848 7 2 7H5.75C6.08152 7 6.39946 6.8683 6.63388 6.63388C6.8683 6.39946 7 6.08152 7 5.75V2C7 1.66848 6.8683 1.35054 6.63388 1.11612C6.39946 0.881696 6.08152 0.75 5.75 0.75H2ZM5.75 10.125H2V13.875H5.75V10.125ZM2 8.875C1.66848 8.875 1.35054 9.0067 1.11612 9.24112C0.881696 9.47554 0.75 9.79348 0.75 10.125V13.875C0.75 14.2065 0.881696 14.5245 1.11612 14.7589C1.35054 14.9933 1.66848 15.125 2 15.125H5.75C6.08152 15.125 6.39946 14.9933 6.63388 14.7589C6.8683 14.5245 7 14.2065 7 13.875V10.125C7 9.79348 6.8683 9.47554 6.63388 9.24112C6.39946 9.0067 6.08152 8.875 5.75 8.875H2ZM5.75 18.25H2V22H5.75V18.25ZM2 17C1.66848 17 1.35054 17.1317 1.11612 17.3661C0.881696 17.6005 0.75 17.9185 0.75 18.25V22C0.75 22.3315 0.881696 22.6495 1.11612 22.8839C1.35054 23.1183 1.66848 23.25 2 23.25H5.75C6.08152 23.25 6.39946 23.1183 6.63388 22.8839C6.8683 22.6495 7 22.3315 7 22V18.25C7 17.9185 6.8683 17.6005 6.63388 17.3661C6.39946 17.1317 6.08152 17 5.75 17H2ZM13.875 2H10.125V5.75H13.875V2ZM10.125 0.75C9.79348 0.75 9.47554 0.881696 9.24112 1.11612C9.0067 1.35054 8.875 1.66848 8.875 2V5.75C8.875 6.08152 9.0067 6.39946 9.24112 6.63388C9.47554 6.8683 9.79348 7 10.125 7H13.875C14.2065 7 14.5245 6.8683 14.7589 6.63388C14.9933 6.39946 15.125 6.08152 15.125 5.75V2C15.125 1.66848 14.9933 1.35054 14.7589 1.11612C14.5245 0.881696 14.2065 0.75 13.875 0.75H10.125ZM13.875 10.125H10.125V13.875H13.875V10.125ZM10.125 8.875C9.79348 8.875 9.47554 9.0067 9.24112 9.24112C9.0067 9.47554 8.875 9.79348 8.875 10.125V13.875C8.875 14.2065 9.0067 14.5245 9.24112 14.7589C9.47554 14.9933 9.79348 15.125 10.125 15.125H13.875C14.2065 15.125 14.5245 14.9933 14.7589 14.7589C14.9933 14.5245 15.125 14.2065 15.125 13.875V10.125C15.125 9.79348 14.9933 9.47554 14.7589 9.24112C14.5245 9.0067 14.2065 8.875 13.875 8.875H10.125ZM13.875 18.25H10.125V22H13.875V18.25ZM10.125 17C9.79348 17 9.47554 17.1317 9.24112 17.3661C9.0067 17.6005 8.875 17.9185 8.875 18.25V22C8.875 22.3315 9.0067 22.6495 9.24112 22.8839C9.47554 23.1183 9.79348 23.25 10.125 23.25H13.875C14.2065 23.25 14.5245 23.1183 14.7589 22.8839C14.9933 22.6495 15.125 22.3315 15.125 22V18.25C15.125 17.9185 14.9933 17.6005 14.7589 17.3661C14.5245 17.1317 14.2065 17 13.875 17H10.125ZM22 2H18.25V5.75H22V2ZM18.25 0.75C17.9185 0.75 17.6005 0.881696 17.3661 1.11612C17.1317 1.35054 17 1.66848 17 2V5.75C17 6.08152 17.1317 6.39946 17.3661 6.63388C17.6005 6.8683 17.9185 7 18.25 7H22C22.3315 7 22.6495 6.8683 22.8839 6.63388C23.1183 6.39946 23.25 6.08152 23.25 5.75V2C23.25 1.66848 23.1183 1.35054 22.8839 1.11612C22.6495 0.881696 22.3315 0.75 22 0.75H18.25ZM22 10.125H18.25V13.875H22V10.125ZM18.25 8.875C17.9185 8.875 17.6005 9.0067 17.3661 9.24112C17.1317 9.47554 17 9.79348 17 10.125V13.875C17 14.2065 17.1317 14.5245 17.3661 14.7589C17.6005 14.9933 17.9185 15.125 18.25 15.125H22C22.3315 15.125 22.6495 14.9933 22.8839 14.7589C23.1183 14.5245 23.25 14.2065 23.25 13.875V10.125C23.25 9.79348 23.1183 9.47554 22.8839 9.24112C22.6495 9.0067 22.3315 8.875 22 8.875H18.25ZM22 18.25H18.25V22H22V18.25ZM18.25 17C17.9185 17 17.6005 17.1317 17.3661 17.3661C17.1317 17.6005 17 17.9185 17 18.25V22C17 22.3315 17.1317 22.6495 17.3661 22.8839C17.6005 23.1183 17.9185 23.25 18.25 23.25H22C22.3315 23.25 22.6495 23.1183 22.8839 22.8839C23.1183 22.6495 23.25 22.3315 23.25 22V18.25C23.25 17.9185 23.1183 17.6005 22.8839 17.3661C22.6495 17.1317 22.3315 17 22 17H18.25Z" fill="#534E00"/>
</svg>
