<svg width="157" height="46" viewBox="0 0 157 46" fill="none" xmlns="http://www.w3.org/2000/svg">
<path d="M5.6416 4.55176H19.8656C21.5487 4.56666 23.2195 4.83893 24.82 5.35911C26.4862 5.87652 28.0463 6.68724 29.4266 7.75299C30.8224 8.8414 31.9779 10.2061 32.8205 11.7616C33.7386 13.4946 34.1951 15.4342 34.146 17.3942C34.153 19.1248 33.7605 20.8338 32.9991 22.3885C32.2389 23.9453 31.1856 25.3413 29.8967 26.5003C28.5636 27.7116 27.0177 28.6664 25.3371 29.3167C23.5861 29.9582 21.7304 30.267 19.8656 30.2273H12.7489L34.1178 43.1918H26.3242L8.24573 32.0203V26.3314H21.21C22.3011 26.3221 23.3801 26.1021 24.3876 25.6836C26.5891 24.7853 28.3873 23.1165 29.4454 20.9897C30.0076 19.8452 30.2911 18.5843 30.2727 17.3097C30.2796 16.1018 30.023 14.9069 29.5206 13.8081C29.0283 12.7543 28.3464 11.7997 27.5088 10.9918C26.6724 10.1725 25.6947 9.511 24.6226 9.0391C23.5477 8.56405 22.3855 8.31788 21.21 8.31626H5.6416V4.55176Z" fill="#FCEA10"/>
<path d="M42.0635 43.2394V10.9268H45.3163V43.2394H42.0635Z" fill="#FCEA10"/>
<path d="M51.8779 10.7949H60.4706C62.2225 10.8263 63.9508 11.2028 65.5567 11.9027C67.389 12.6596 69.0655 13.748 70.5017 15.1133C72.0618 16.5786 73.3367 18.3196 74.2622 20.2484C75.2089 22.3326 75.7111 24.5907 75.737 26.8791C75.7629 29.1676 75.3119 31.4364 74.4126 33.5414C73.5802 35.4527 72.4008 37.1937 70.9342 38.6765C69.5323 40.1034 67.878 41.2588 66.0549 42.0843C64.3106 42.8922 62.4122 43.3149 60.4894 43.3235H59.5493V40.0659C61.2209 40.0675 62.8772 39.7488 64.4285 39.1272C65.9798 38.5061 67.4017 37.6019 68.6215 36.461C70.4899 34.6569 71.7789 32.3387 72.3246 29.8012C72.8703 27.2637 72.6481 24.6215 71.6863 22.2104C70.4438 19.0615 68.0326 16.5125 64.955 15.0945C63.2585 14.325 61.4124 13.9403 59.5493 13.968H51.8779V10.7949Z" fill="#FCEA10"/>
<path d="M108.498 10.748V14.0056H82.4854V10.748H108.498ZM108.545 28.0591H85.7476V39.9815H108.545V43.2391H82.4854V24.8015H108.545V28.0591Z" fill="#FCEA10"/>
<path d="M119.859 4.28906L150.244 43.1638H145.308L132.335 26.7164L120.245 43.1638H115.027L129.984 23.4495L114.942 4.29846L119.859 4.28906Z" fill="#FCEA10"/>
<path d="M6.86328 4.55176H21.0873C22.7708 4.562 24.4423 4.83439 26.0417 5.35911C27.7108 5.87643 29.274 6.6871 30.6577 7.75299C32.0529 8.83567 33.2058 10.1979 34.0421 11.7522C34.9579 13.4861 35.4142 15.4251 35.3677 17.3848C35.3792 19.119 34.9865 20.832 34.2208 22.3885C33.4628 23.9439 32.4091 25.3373 31.1184 26.491C29.7874 27.705 28.241 28.6602 26.5588 29.3073C24.8088 29.9537 22.9528 30.2658 21.0873 30.2273H13.9988L35.3677 43.1824H27.5553L9.46741 32.0485V26.3501H22.3941C23.4852 26.3408 24.5642 26.1209 25.5717 25.7024C26.6513 25.2624 27.6396 24.6257 28.486 23.8248C29.3674 23.0252 30.094 22.0706 30.6295 21.0085C31.1615 19.8881 31.4438 18.6658 31.4567 17.4259C31.4697 16.186 31.2131 14.9581 30.7047 13.8269C30.2146 12.7741 29.536 11.8197 28.7023 11.0105C27.8608 10.1932 26.8803 9.53201 25.8067 9.05788C24.7318 8.58283 23.5695 8.33664 22.3941 8.33502H6.86328V4.55176Z" fill="#FCEA10"/>
<path d="M43.2842 43.23V10.9268H46.537V43.23H43.2842Z" fill="#FCEA10"/>
<path d="M53.0996 10.7949H61.7017C63.4504 10.8273 65.1755 11.2038 66.7784 11.9027C68.6123 12.6618 70.2915 13.7499 71.7328 15.1133C73.2955 16.5763 74.5708 18.3178 75.4933 20.2484C76.5042 22.3898 77.0091 24.7344 76.9692 27.1014C76.9888 29.3176 76.5369 31.5126 75.6437 33.5414C74.8087 35.449 73.6332 37.189 72.1746 38.6765C70.7676 40.1016 69.1106 41.2566 67.286 42.0843C65.5449 42.8921 63.6497 43.3147 61.7299 43.3235H60.7898V40.0659C62.4648 40.072 64.1251 39.7532 65.6784 39.1272C67.2296 38.5114 68.6494 37.6066 69.8619 36.461C71.1424 35.2577 72.1587 33.8019 72.8465 32.1859C73.5343 30.57 73.8785 28.829 73.8575 27.0733C73.8548 25.4228 73.5357 23.788 72.9173 22.2574C71.6901 19.0987 69.2742 16.5448 66.1861 15.1414C64.4896 14.3719 62.6435 13.9872 60.7804 14.0149H53.0996V10.7949Z" fill="#FCEA10"/>
<path d="M109.733 10.748V14.0056H83.7197V10.748H109.733ZM109.733 28.0497H87.0195V39.9815H109.77V43.2297H83.7197V24.8015H109.77L109.733 28.0497Z" fill="#FCEA10"/>
<path d="M121.081 4.28906L151.465 43.1638H146.52L133.537 26.7164L121.447 43.1638H116.239L131.196 23.4495L116.154 4.29846L121.081 4.28906Z" fill="#FCEA10"/>
<path d="M7.42676 4.51465H21.6602C23.3406 4.52494 25.009 4.79734 26.6052 5.322C28.2729 5.83359 29.836 6.63787 31.2212 7.6971C32.6164 8.77978 33.7692 10.142 34.6056 11.6963C35.4499 13.3299 35.9061 15.1357 35.9387 16.9738C35.9713 18.8118 35.5795 20.6326 34.7936 22.2951C34.027 23.8479 32.9745 25.2427 31.6912 26.4069C30.3566 27.6161 28.8112 28.5706 27.1317 29.2232C25.3868 29.8968 23.5309 30.2375 21.6602 30.2277H14.5717L35.9406 43.1828H28.1188L10.0403 32.0114V26.313H22.9575C24.0487 26.3037 25.1277 26.0838 26.1351 25.6653C27.2165 25.2233 28.2075 24.5869 29.0589 23.7877C29.9347 22.9853 30.6577 22.0311 31.193 20.9714C31.7331 19.8533 32.0198 18.6302 32.0328 17.3889C32.0458 16.1477 31.7847 14.9188 31.2682 13.7898C30.7847 12.7332 30.1053 11.7775 29.2657 10.9734C28.4259 10.1541 27.445 9.49259 26.3702 9.02077C25.2959 8.54387 24.1332 8.29759 22.9575 8.29791H7.42676V4.51465Z" fill="#FCEA10"/>
<path d="M43.8486 43.1919V10.8887H47.1108V43.1919H43.8486Z" fill="#FCEA10"/>
<path d="M53.6641 10.7578H62.2662C64.0148 10.7902 65.74 11.1667 67.3428 11.8656C69.178 12.6224 70.8576 13.7108 72.2972 15.0762C73.8628 16.5367 75.1386 18.2788 76.0577 20.2113C77.0686 22.3527 77.5736 24.6973 77.5337 27.0644C77.5532 29.2805 77.1014 31.4755 76.2081 33.5044C75.3731 35.4119 74.1976 37.1519 72.7391 38.6395C71.3321 40.0645 69.6751 41.2195 67.8505 42.0472C66.1094 42.8549 64.2141 43.2776 62.2944 43.2864H61.3542V40.0288C63.0289 40.0314 64.6886 39.7127 66.2429 39.0901C67.7953 38.4669 69.2173 37.5595 70.4358 36.4145C72.3072 34.6143 73.5977 32.2972 74.1421 29.76C74.6864 27.2228 74.4598 24.5811 73.4912 22.1733C72.8826 20.6339 71.9932 19.2206 70.8683 18.0052C69.7026 16.7665 68.3074 15.7655 66.7599 15.0574C65.0641 14.2858 63.2175 13.901 61.3542 13.9309H53.7111L53.6641 10.7578Z" fill="#FCEA10"/>
<path d="M110.294 10.7109V13.9685H84.2812V10.7109H110.294ZM110.341 28.0219H87.5341V39.9444H110.341V43.1926H84.2812V24.7644H110.341V28.0219Z" fill="#FCEA10"/>
<path d="M121.651 4.25195L152.027 43.1266H147.082L134.108 26.6793L122.009 43.1266H116.8L131.758 23.4124L116.716 4.26134L121.651 4.25195Z" fill="#FCEA10"/>
<path d="M42.0635 43.2394V10.9268H45.3163V43.2394H42.0635Z" fill="white"/>
<path d="M51.8779 10.7949H60.4706C62.2225 10.8263 63.9508 11.2028 65.5567 11.9027C67.389 12.6596 69.0655 13.748 70.5017 15.1133C72.0618 16.5786 73.3367 18.3196 74.2622 20.2484C75.2089 22.3326 75.7111 24.5907 75.737 26.8791C75.7629 29.1676 75.3119 31.4364 74.4126 33.5414C73.5775 35.4513 72.3985 37.1918 70.9342 38.6765C69.5323 40.1034 67.878 41.2588 66.0549 42.0843C64.3106 42.8922 62.4122 43.3149 60.4894 43.3235H59.5493V40.0659C61.2209 40.0675 62.8772 39.7488 64.4285 39.1272C65.9798 38.5061 67.4017 37.6019 68.6215 36.461C70.4899 34.6569 71.7789 32.3387 72.3246 29.8012C72.8703 27.2637 72.6481 24.6215 71.6863 22.2104C70.4438 19.0615 68.0326 16.5125 64.955 15.0945C63.2585 14.325 61.4124 13.9403 59.5493 13.968H51.8779V10.7949Z" fill="white"/>
<path d="M108.498 10.748V14.0056H82.4854V10.748H108.498ZM108.545 28.0591H85.7476V39.9815H108.545V43.2391H82.4854V24.8015H108.545V28.0591Z" fill="white"/>
<path d="M119.859 4.28906L150.244 43.1638H145.308L132.335 26.7164L120.245 43.1638H115.027L129.984 23.4495L114.942 4.29846L119.859 4.28906Z" fill="white"/>
<path d="M43.8486 43.1919V10.8887H47.1108V43.1919H43.8486Z" fill="white"/>
<path d="M53.6641 10.7578H62.2662C64.0148 10.7902 65.74 11.1667 67.3428 11.8656C69.178 12.6224 70.8576 13.7108 72.2972 15.0762C73.8628 16.5367 75.1386 18.2788 76.0577 20.2113C77.0686 22.3527 77.5736 24.6973 77.5337 27.0644C77.5532 29.2805 77.1014 31.4755 76.2081 33.5044C75.3731 35.4119 74.1976 37.1519 72.7391 38.6395C71.3321 40.0645 69.6751 41.2195 67.8505 42.0472C66.1094 42.8549 64.2141 43.2776 62.2944 43.2864H61.3542V40.0288C63.0294 40.0359 64.6898 39.717 66.2429 39.0901C67.7966 38.4737 69.2193 37.5691 70.4358 36.4239C72.3072 34.6237 73.5977 32.3066 74.1421 29.7694C74.6864 27.2322 74.4598 24.5905 73.4912 22.1827C72.8826 20.6433 71.9932 19.23 70.8683 18.0146C69.7026 16.7759 68.3074 15.7749 66.7599 15.0668C65.0641 14.2952 63.2175 13.9104 61.3542 13.9403H53.7111L53.6641 10.7578Z" fill="white"/>
<path d="M110.294 10.7109V13.9685H84.2812V10.7109H110.294ZM110.341 28.0219H87.5435V39.9444H110.341V43.1926H84.2812V24.7644H110.341V28.0219Z" fill="white"/>
<path d="M121.651 4.25195L152.027 43.1642H147.082L134.108 26.7075L122.009 43.1642H116.8L131.758 23.4499L116.716 4.28012L121.651 4.25195Z" fill="white"/>
<path d="M120.382 9.06208L119.879 9.4531C119.698 9.22051 119.57 8.96832 119.494 8.69653C119.427 8.42574 119.411 8.15522 119.445 7.88496C119.479 7.61471 119.562 7.35665 119.694 7.11079C119.834 6.86592 120.02 6.65311 120.253 6.47238L123.619 3.86035L124.924 5.53767L124.42 5.92869L123.507 4.75457L120.645 6.97557C120.483 7.1007 120.354 7.24795 120.256 7.41732C120.161 7.59116 120.102 7.77347 120.078 7.96423C120.054 8.155 120.066 8.34628 120.115 8.53807C120.168 8.72638 120.257 8.90105 120.382 9.06208Z" fill="#1D1D1B"/>
<path d="M121.567 11.6638C121.386 11.4312 121.258 11.179 121.183 10.9073C121.115 10.6365 121.099 10.3659 121.133 10.0957C121.167 9.82543 121.25 9.56737 121.382 9.32151C121.522 9.07664 121.708 8.86384 121.941 8.6831C122.169 8.50584 122.418 8.38149 122.685 8.31007C122.961 8.23964 123.234 8.22138 123.505 8.25528C123.775 8.28918 124.034 8.37201 124.28 8.50377C124.53 8.64001 124.745 8.82442 124.926 9.05701C125.103 9.28512 125.226 9.53458 125.293 9.80537C125.363 10.0806 125.382 10.3534 125.348 10.6236C125.314 10.8939 125.229 11.1537 125.092 11.403C124.96 11.6489 124.78 11.8605 124.552 12.0377L124.229 12.288L122.924 10.6107L123.428 10.2196L124.341 11.3938C124.476 11.2895 124.579 11.1591 124.651 11.0027C124.727 10.8507 124.768 10.6862 124.774 10.5094C124.78 10.3325 124.754 10.1517 124.696 9.96682C124.639 9.78198 124.547 9.60905 124.422 9.44803C124.293 9.28254 124.142 9.15255 123.968 9.05808C123.798 8.96014 123.618 8.8992 123.427 8.87527C123.239 8.85581 123.049 8.87038 122.857 8.91899C122.669 8.97206 122.494 9.06117 122.333 9.18629C122.167 9.3149 122.035 9.46388 121.937 9.63325C121.842 9.8071 121.781 9.98717 121.754 10.1735C121.734 10.3607 121.749 10.5503 121.798 10.7421C121.851 10.9304 121.942 11.1073 122.07 11.2728L121.567 11.6638Z" fill="#1D1D1B"/>
<path d="M124.576 15.5177C124.395 15.2852 124.27 15.0312 124.199 14.756C124.129 14.4807 124.11 14.2079 124.144 13.9377C124.178 13.6674 124.263 13.4076 124.4 13.1583C124.536 12.909 124.721 12.6939 124.954 12.5132C125.187 12.3324 125.439 12.2086 125.71 12.1416C125.986 12.0712 126.259 12.0529 126.529 12.0868C126.805 12.1173 127.067 12.2006 127.317 12.3368C127.566 12.4731 127.782 12.6575 127.963 12.8901C128.154 13.1361 128.282 13.4064 128.346 13.701C128.413 14.0002 128.421 14.2918 128.369 14.5759L127.746 14.4676C127.776 14.2654 127.767 14.0605 127.72 13.8528C127.674 13.6451 127.584 13.4563 127.452 13.2863C127.323 13.1208 127.172 12.9908 126.998 12.8964C126.824 12.8019 126.641 12.7427 126.45 12.7188C126.259 12.6948 126.067 12.7072 125.875 12.7558C125.687 12.8089 125.512 12.898 125.351 13.0231C125.185 13.1517 125.053 13.3007 124.955 13.47C124.86 13.6439 124.801 13.8262 124.777 14.017C124.753 14.2077 124.765 14.399 124.814 14.5908C124.867 14.7791 124.958 14.956 125.087 15.1215L124.576 15.5177Z" fill="#1D1D1B"/>
<path d="M129.839 16.3813L128.795 15.0394L130.985 13.3398L131.377 13.843L129.697 15.1464L130.35 15.985C130.531 16.2176 130.655 16.4693 130.722 16.7401C130.792 17.0154 130.811 17.2881 130.777 17.5584C130.743 17.8286 130.657 18.0884 130.521 18.3378C130.389 18.5836 130.207 18.7969 129.974 18.9777L128.294 20.2811L127.897 19.7712L129.577 18.4678C129.743 18.3392 129.873 18.1879 129.967 18.0141C130.065 17.8447 130.124 17.6664 130.144 17.4791C130.171 17.2928 130.158 17.1055 130.105 16.9172C130.057 16.7254 129.968 16.5468 129.839 16.3813Z" fill="#1D1D1B"/>
<path d="M130.364 19.465C130.597 19.2843 130.849 19.1604 131.12 19.0935C131.396 19.0231 131.669 19.0048 131.939 19.0387C132.214 19.0691 132.475 19.1502 132.721 19.282C132.971 19.4182 133.186 19.6026 133.367 19.8352C133.548 20.0678 133.672 20.3195 133.739 20.5903C133.81 20.8655 133.826 21.14 133.788 21.4138C133.757 21.6885 133.674 21.9505 133.537 22.1999C133.405 22.4457 133.223 22.659 132.99 22.8398L131.303 24.1484L130.907 23.6385L132.593 22.3299C132.754 22.2047 132.882 22.0553 132.977 21.8814C133.075 21.712 133.136 21.532 133.16 21.3412C133.184 21.1504 133.172 20.9592 133.123 20.7674C133.074 20.5756 132.986 20.3969 132.857 20.2314C132.728 20.066 132.576 19.936 132.402 19.8415C132.228 19.747 132.046 19.6878 131.855 19.6639C131.664 19.64 131.472 19.6523 131.28 19.7009C131.091 19.754 130.917 19.8431 130.755 19.9682L130.364 19.465Z" fill="#1D1D1B"/>
<path d="M136.349 23.7219C136.526 23.95 136.649 24.1995 136.716 24.4703C136.791 24.7421 136.811 25.0131 136.777 25.2833C136.743 25.5536 136.656 25.8111 136.516 26.056C136.385 26.3019 136.204 26.5134 135.976 26.6907C135.743 26.8714 135.489 26.997 135.213 27.0675C134.945 27.1389 134.676 27.1576 134.406 27.1237C134.139 27.0864 133.884 26.9978 133.638 26.8581C133.397 26.7229 133.187 26.5412 133.01 26.3131L133.513 25.9221C133.639 26.0831 133.786 26.2126 133.956 26.3105C134.13 26.405 134.309 26.4637 134.492 26.4866C134.683 26.5105 134.87 26.4977 135.054 26.4481C135.246 26.3995 135.423 26.3126 135.584 26.1875C135.746 26.0624 135.874 25.9129 135.968 25.7391C136.066 25.5697 136.125 25.3914 136.144 25.2041C136.172 25.0178 136.159 24.8305 136.106 24.6422C136.057 24.4504 135.97 24.274 135.845 24.1129C135.72 23.9519 135.57 23.8242 135.396 23.7297C135.23 23.6362 135.051 23.5775 134.86 23.5536C134.677 23.5307 134.489 23.5435 134.297 23.5921C134.109 23.6452 133.934 23.7343 133.773 23.8594L133.381 23.3562C133.609 23.1789 133.858 23.0546 134.125 22.9832C134.401 22.9127 134.674 22.8945 134.945 22.9284C135.215 22.9623 135.472 23.0469 135.713 23.1821C135.959 23.3139 136.171 23.4938 136.349 23.7219Z" fill="#1D1D1B"/>
<path d="M135.075 28.9951L134.684 28.4919L139.729 24.5765L140.121 25.0797L135.075 28.9951Z" fill="#1D1D1B"/>
<path d="M140.142 28.5966C140.32 28.8247 140.442 29.0742 140.509 29.345C140.584 29.6168 140.605 29.8878 140.571 30.158C140.537 30.4283 140.45 30.6858 140.31 30.9307C140.178 31.1766 139.998 31.3881 139.769 31.5654C139.536 31.7461 139.282 31.8717 139.006 31.9422C138.739 32.0136 138.47 32.0323 138.199 31.9984C137.933 31.9611 137.677 31.8725 137.432 31.7328C137.19 31.5976 136.981 31.4159 136.803 31.1878L137.307 30.7968C137.432 30.9578 137.58 31.0873 137.749 31.1852C137.923 31.2797 138.102 31.3384 138.285 31.3613C138.476 31.3852 138.664 31.3724 138.848 31.3228C139.04 31.2742 139.217 31.1873 139.378 31.0622C139.539 30.9371 139.667 30.7876 139.762 30.6138C139.86 30.4444 139.918 30.2661 139.938 30.0788C139.965 29.8925 139.953 29.7052 139.899 29.5169C139.851 29.3251 139.764 29.1487 139.638 28.9876C139.513 28.8266 139.363 28.6989 139.189 28.6044C139.023 28.5109 138.845 28.4522 138.654 28.4283C138.47 28.4054 138.283 28.4182 138.091 28.4668C137.902 28.5199 137.727 28.609 137.566 28.7341L137.174 28.2309C137.403 28.0536 137.651 27.9293 137.919 27.8579C138.194 27.7874 138.467 27.7692 138.738 27.8031C139.009 27.837 139.265 27.9216 139.507 28.0568C139.753 28.1886 139.965 28.3685 140.142 28.5966Z" fill="#1D1D1B"/>
<path d="M141.106 36.7175C140.878 36.8948 140.628 37.0169 140.357 37.0838C140.085 37.1587 139.813 37.1792 139.543 37.1453C139.272 37.1114 139.014 37.0246 138.769 36.8849C138.523 36.7532 138.309 36.571 138.128 36.3384C137.95 36.1103 137.81 35.8787 137.706 35.6437C137.602 35.4086 137.537 35.1826 137.512 34.9654C137.49 34.7528 137.506 34.5508 137.558 34.3596C137.609 34.1763 137.702 34.0183 137.836 33.8857L138.306 34.4896C138.255 34.572 138.215 34.66 138.188 34.7533C138.16 34.8467 138.155 34.9511 138.173 35.0663C138.186 35.1851 138.228 35.3135 138.3 35.4517C138.371 35.5978 138.481 35.763 138.632 35.9474C138.761 36.1129 138.912 36.2429 139.086 36.3373C139.256 36.4353 139.434 36.494 139.622 36.5134C139.808 36.5408 139.996 36.528 140.185 36.4749C140.377 36.4263 140.553 36.3395 140.715 36.2143L142.394 34.9109C142.556 34.7858 142.684 34.6363 142.778 34.4625C142.876 34.2931 142.937 34.113 142.961 33.9223C142.989 33.736 142.976 33.5487 142.923 33.3603C142.874 33.1686 142.785 32.9899 142.656 32.8244C142.535 32.6679 142.387 32.5424 142.213 32.4479C142.046 32.3544 141.868 32.2957 141.677 32.2718C141.486 32.2479 141.294 32.2602 141.102 32.3088C140.91 32.3574 140.733 32.4443 140.572 32.5694C140.411 32.6945 140.283 32.844 140.188 33.0178C140.094 33.1917 140.035 33.374 140.011 33.5648C139.987 33.7555 139.997 33.9446 140.042 34.1319C140.096 34.3202 140.183 34.4926 140.305 34.6492L139.801 35.0402C139.623 34.8121 139.497 34.5621 139.422 34.2903C139.355 34.0196 139.336 33.7508 139.366 33.484C139.4 33.2137 139.483 32.9557 139.615 32.7098C139.755 32.465 139.943 32.2504 140.181 32.0662C140.409 31.8889 140.657 31.7646 140.925 31.6932C141.2 31.6227 141.474 31.6045 141.744 31.6384C142.015 31.6723 142.271 31.7568 142.513 31.8921C142.763 32.0283 142.976 32.2105 143.154 32.4386C143.335 32.6712 143.459 32.9229 143.526 33.1937C143.601 33.4655 143.621 33.7365 143.587 34.0067C143.553 34.277 143.466 34.5346 143.327 34.7794C143.195 35.0253 143.014 35.2369 142.786 35.4141L141.106 36.7175Z" fill="#1D1D1B"/>
<path d="M143.859 38.6077L140.25 39.1486L139.806 38.5783L143.405 38.024L144.846 34.6681L145.3 35.2518L143.859 38.6077Z" fill="#1D1D1B"/>
</svg>
